<!DOCTYPE svg PUBLIC "-//W3C//DTD SVG 1.1//EN" "http://www.w3.org/Graphics/SVG/1.1/DTD/svg11.dtd"> <svg width="521px" height="521px" version="1.1" baseProfile="full" xmlns="http://www.w3.org/2000/svg" xmlns:xlink="http://www.w3.org/1999/xlink" xmlns:ev="http://www.w3.org/2001/xml-events"><defs><linearGradient x1="41.97721822541966%" x2="44.56654676258992%" y1="67.79239690721649%" y2="67.79239690721649%" id="left-inner-eye-gradient" gradientUnits="userSpaceOnUse"><stop stop-color="#BA86F3"></stop><stop offset="0.5281" stop-color="#B786F4"></stop><stop offset="0.8987" stop-color="#AE86F5"></stop><stop offset="1" stop-color="#AA86F6"></stop></linearGradient><linearGradient x1="56.72805755395684%" x2="56.72805755395684%" y1="81.08904639175258%" y2="54.49574742268041%" id="right-inner-eye-gradient" gradientUnits="userSpaceOnUse"><stop stop-color="#BA86F3"></stop><stop offset="0.5281" stop-color="#B786F4"></stop><stop offset="0.8987" stop-color="#AE86F5"></stop><stop offset="1" stop-color="#AA86F6"></stop></linearGradient><linearGradient x1="25.107913669064747%" x2="25.107913669064747%" y1="72.68865979381442%" y2="89.44690721649484%" id="left-middle-cheek-gradient" gradientUnits="userSpaceOnUse"><stop stop-color="#6848BA"></stop><stop offset="0.3363" stop-color="#6356D5"></stop></linearGradient><linearGradient x1="74.89208633093526%" x2="74.89208633093526%" y1="51.32938144329896%" y2="94.76301546391753%" id="right-middle-cheek-gradient" gradientUnits="userSpaceOnUse"><stop stop-color="#6848BA"></stop><stop offset="0.3363" stop-color="#6356D5"></stop></linearGradient><linearGradient x1="67.00671462829736%" x2="67.00671462829736%" y1="30.13930412371134%" y2="54.49561855670103%" id="right-forehead-gradient" gradientUnits="userSpaceOnUse"><stop stop-color="#DC69E6"></stop><stop offset="1" stop-color="#C289F3"></stop></linearGradient><linearGradient x1="32.99340527577938%" x2="32.99340527577938%" y1="30.13930412371134%" y2="54.49561855670103%" id="left-forehead-gradient" gradientUnits="userSpaceOnUse"><stop stop-color="#DC69E6"></stop><stop offset="1" stop-color="#C289F3"></stop></linearGradient><linearGradient x1="95.056858513189448%" x2="57.31654676258992%" y1="15.06958762886598%" y2="15.06958762886598%" id="right-top-ear-gradient" gradientUnits="userSpaceOnUse"><stop stop-color="#BB65ED"></stop><stop offset="1" stop-color="#E560E3"></stop></linearGradient><linearGradient x1="4.943141486810552%" x2="42.68345323741008%" y1="15.06958762886598%" y2="15.06958762886598%" id="left-top-ear-gradient" gradientUnits="userSpaceOnUse"><stop stop-color="#BB65ED"></stop><stop offset="1" stop-color="#E560E3"></stop></linearGradient><linearGradient x1="15.103956834532372%" x2="15.103956834532372%" y1="72.6889175257732%" y2="96.03221649484537%" id="left-lower-cheek-gradient" gradientUnits="userSpaceOnUse"><stop stop-color="#906EF7"></stop><stop offset="1" stop-color="#575ADE"></stop></linearGradient><linearGradient x1="84.91570743405276%" x2="84.91570743405276%" y1="72.6889175257732%" y2="96.03221649484537%" id="right-lower-cheek-gradient" gradientUnits="userSpaceOnUse"><stop stop-color="#906EF7"></stop><stop offset="1" stop-color="#575ADE"></stop></linearGradient><linearGradient x1="68.7720623501199%" x2="78.03057553956835%" y1="63.14909793814433%" y2="63.14909793814433%" id="right-outer-eye-gradient" gradientUnits="userSpaceOnUse"><stop stop-color="#BA86F3"></stop><stop offset="0.5281" stop-color="#B786F4"></stop><stop offset="0.8987" stop-color="#AE86F5"></stop><stop offset="1" stop-color="#AA86F6"></stop></linearGradient><linearGradient x1="21.969424460431654%" x2="31.227937649880094%" y1="63.14909793814433%" y2="63.14909793814433%" id="left-outer-eye-gradient" gradientUnits="userSpaceOnUse"><stop stop-color="#BA86F3"></stop><stop offset="0.5281" stop-color="#B786F4"></stop><stop offset="0.8987" stop-color="#AE86F5"></stop><stop offset="1" stop-color="#AA86F6"></stop></linearGradient><linearGradient x1="50%" x2="4%" y1="30%" y2="4%" id="left-ear-gradient" gradientUnits="userSpaceOnUse"><stop stop-color="#541758"></stop><stop offset="0.4286" stop-color="#4F206C"></stop><stop offset="0.62" stop-color="#4D2577"></stop><stop offset="1" stop-color="#8B45B6"></stop></linearGradient><linearGradient x1="50%" x2="96%" y1="30%" y2="4%" id="right-ear-gradient" gradientUnits="userSpaceOnUse"><stop stop-color="#541758"></stop><stop offset="0.4286" stop-color="#4F206C"></stop><stop offset="0.62" stop-color="#4D2577"></stop><stop offset="1" stop-color="#8B45B6"></stop></linearGradient><linearGradient x1="30.914028776978412%" x2="44.56654676258992%" y1="72.83646907216496%" y2="72.83646907216496%" id="left-below-eye-gradient" gradientUnits="userSpaceOnUse"><stop stop-color="#C8A8F7"></stop><stop offset="1" stop-color="#BAAAFB"></stop></linearGradient><linearGradient x1="55.43345323741007%" x2="69.12517985611511%" y1="72.83646907216496%" y2="72.83646907216496%" id="right-below-eye-gradient" gradientUnits="userSpaceOnUse"><stop stop-color="#C8A8F7"></stop><stop offset="1" stop-color="#BAAAFB"></stop></linearGradient><linearGradient x1="16.02589928057554%" x2="16.02589928057554%" y1="43.35154639175258%" y2="72.85773195876288%" id="left-upper-cheek-gradient" gradientUnits="userSpaceOnUse"><stop stop-color="#B65FE5"></stop><stop offset="1" stop-color="#ADA2FC"></stop></linearGradient><linearGradient x1="83.99364508393285%" x2="83.99364508393285%" y1="43.35154639175258%" y2="72.85773195876288%" id="right-upper-cheek-gradient" gradientUnits="userSpaceOnUse"><stop stop-color="#B65FE5"></stop><stop offset="1" stop-color="#ADA2FC"></stop></linearGradient><linearGradient x1="50%" x2="50%" y1="12.790180412371136%" y2="81.08904639175258%" id="forehead-gradient" gradientUnits="userSpaceOnUse"><stop stop-color="#FB7FE4"></stop><stop offset="1" stop-color="#BCABFB"></stop></linearGradient><linearGradient x1="50%" x2="50%" y1="12.790180412371136%" y2="81.08904639175258%" id="back-gradient" gradientUnits="userSpaceOnUse"><stop stop-color="#FB7FE4"></stop><stop offset="1" stop-color="#5C5CE0"></stop></linearGradient></defs><polygon fill="url('#right-lower-cheek-gradient')" stroke="url('#right-lower-cheek-gradient')" points="318.86081102490425,203.18406879901886 305.0064081251621,256.9922704696655 281.2859826683998,243.5412633419037"></polygon><polygon fill="url('#back-gradient')" stroke="url('#back-gradient')" points="281.2859826683998,243.5412633419037 305.0064081251621,256.9922704696655 243.91614672541618,234.8320119380951"></polygon><polygon fill="url('#right-lower-cheek-gradient')" stroke="url('#right-lower-cheek-gradient')" points="281.2859826683998,243.5412633419037 309.87661135196686,201.32334530353546 318.86081102490425,203.18406879901886"></polygon><polygon fill="url('#right-ear-gradient')" stroke="url('#right-ear-gradient')" points="323.5880912542343,120.356436252594 317.1060889363289,125.57132363319397 318.7283610403538,116.52500009536743"></polygon><polygon fill="url('#right-upper-cheek-gradient')" stroke="url('#right-upper-cheek-gradient')" points="303.1310662329197,157.7706827223301 311.7097969651222,152.20157182216644 318.86081102490425,203.18406879901886"></polygon><polygon fill="url('#right-upper-cheek-gradient')" stroke="url('#right-upper-cheek-gradient')" points="303.1310662329197,157.7706827223301 318.86081102490425,203.18406879901886 309.87661135196686,201.32334530353546"></polygon><polygon fill="url('#right-ear-gradient')" stroke="url('#right-ear-gradient')" points="279.074291318655,132.79370856285095 318.7283610403538,116.52500009536743 317.1060889363289,125.57132363319397"></polygon><polygon fill="url('#right-ear-gradient')" stroke="url('#right-ear-gradient')" points="316.2672390341759,136.55052852630615 317.1060889363289,125.57132363319397 322.64158070087433,130.10767328739166"></polygon><polygon fill="url('#right-ear-gradient')" stroke="url('#right-ear-gradient')" points="316.2672390341759,136.55052852630615 279.074291318655,132.79370856285095 317.1060889363289,125.57132363319397"></polygon><polygon fill="url('#right-ear-gradient')" stroke="url('#right-ear-gradient')" points="311.7097969651222,152.20157182216644 316.2672390341759,136.55052852630615 320.79915913939476,139.96250581741333"></polygon><polygon fill="url('#right-ear-gradient')" stroke="url('#right-ear-gradient')" points="316.2672390341759,136.55052852630615 311.7097969651222,152.20157182216644 279.074291318655,132.79370856285095"></polygon><polygon fill="url('#right-ear-gradient')" stroke="url('#right-ear-gradient')" points="318.7283610403538,116.52500009536743 279.074291318655,132.79370856285095 290.9413079023361,82.44310855865479"></polygon><polygon fill="url('#right-ear-gradient')" stroke="url('#right-ear-gradient')" points="290.9413079023361,82.44310855865479 330.2803345024586,80.05196571350098 318.7283610403538,116.52500009536743"></polygon><polygon fill="url('#right-ear-gradient')" stroke="url('#right-ear-gradient')" points="311.7097969651222,152.20157182216644 271.0672345608473,136.18874287605286 279.074291318655,132.79370856285095"></polygon><polygon fill="url('#right-ear-gradient')" stroke="url('#right-ear-gradient')" points="290.9413079023361,82.44310855865479 279.074291318655,132.79370856285095 271.0672345608473,136.18874287605286"></polygon><polygon fill="url('#right-ear-gradient')" stroke="url('#right-ear-gradient')" points="329.8779402077198,44.557178020477295 330.2803345024586,80.05196571350098 290.9413079023361,82.44310855865479"></polygon><polygon fill="url('#right-upper-cheek-gradient')" stroke="url('#right-upper-cheek-gradient')" points="311.7097969651222,152.20157182216644 303.1310662329197,157.7706827223301 271.0672345608473,136.18874287605286"></polygon><polygon fill="url('#back-gradient')" stroke="url('#back-gradient')" points="243.91614672541618,234.8320119380951 256.7449450045824,236.25275373458862 281.2859826683998,243.5412633419037"></polygon><polygon fill="url('#forehead-gradient')" stroke="url('#forehead-gradient')" points="182.68415135145187,53.73657703399658 243.91908925771713,63.29422903060913 249.94483993202448,101.82033276557922"></polygon><polygon fill="url('#right-top-ear-gradient')" stroke="url('#right-top-ear-gradient')" points="329.8779402077198,44.557178020477295 249.94483993202448,101.82033276557922 243.91908925771713,63.29422903060913"></polygon><polygon fill="url('#right-ear-gradient')" stroke="url('#right-ear-gradient')" points="271.0672345608473,136.18874287605286 249.94483993202448,101.82033276557922 290.9413079023361,82.44310855865479"></polygon><polygon fill="url('#right-ear-gradient')" stroke="url('#right-ear-gradient')" points="290.9413079023361,82.44310855865479 249.94483993202448,101.82033276557922 329.8779402077198,44.557178020477295"></polygon><polygon fill="url('#right-forehead-gradient')" stroke="url('#right-forehead-gradient')" points="271.0672345608473,136.18874287605286 303.1310662329197,157.7706827223301 268.049049153924,158.40139809250832"></polygon><polygon fill="url('#right-forehead-gradient')" stroke="url('#right-forehead-gradient')" points="268.049049153924,158.40139809250832 249.94483993202448,101.82033276557922 271.0672345608473,136.18874287605286"></polygon><polygon fill="url('#right-middle-cheek-gradient')" stroke="url('#right-middle-cheek-gradient')" points="281.2859826683998,243.5412633419037 293.96331860125065,201.80809772014618 309.87661135196686,201.32334530353546"></polygon><polygon fill="url('#right-upper-cheek-gradient')" stroke="url('#right-upper-cheek-gradient')" points="309.87661135196686,201.32334530353546 293.96331860125065,201.80809772014618 303.1310662329197,157.7706827223301"></polygon><polygon fill="url('#forehead-gradient')" stroke="url('#forehead-gradient')" points="249.94483993202448,101.82033276557922 217.38223702460527,98.51975655555725 182.68415135145187,53.73657703399658"></polygon><polygon fill="url('#right-outer-eye-gradient')" stroke="url('#right-outer-eye-gradient')" points="303.1310662329197,157.7706827223301 293.96331860125065,201.80809772014618 291.9112386107445,179.47835057973862"></polygon><polygon fill="rgb(156,90,221)" stroke="rgb(156,90,221)" points="268.049049153924,158.40139809250832 303.1310662329197,157.7706827223301 291.9112386107445,179.47835057973862"></polygon><polygon fill="url('#back-gradient')" stroke="url('#back-gradient')" points="103.5865591019392,128.86263227462769 132.00661699473858,98.85153150558472 107.96852415800095,124.83859491348267"></polygon><polygon fill="rgb(223,117,84)" stroke="rgb(223,117,84)" points="184.31609778106213,243.1553599834442 211.89734030142426,260.539110660553 173.85544949769974,241.24164962768555"></polygon><polygon fill="url('#forehead-gradient')" stroke="url('#forehead-gradient')" points="217.38223702460527,98.51975655555725 249.94483993202448,101.82033276557922 268.049049153924,158.40139809250832"></polygon><polygon fill="url('#left-top-ear-gradient')" stroke="url('#left-top-ear-gradient')" points="217.38223702460527,98.51975655555725 131.45261622965336,3.0745697021484375 182.68415135145187,53.73657703399658"></polygon><polygon fill="rgb(156,90,221)" stroke="rgb(156,90,221)" points="291.9112386107445,179.47835057973862 277.452962026,170.3734903112054 268.049049153924,158.40139809250832"></polygon><polygon fill="rgb(22,22,22)" stroke="rgb(22,22,22)" points="275.92121782898903,187.4874774813652 277.452962026,170.3734903112054 291.9112386107445,179.47835057973862"></polygon><polygon fill="url('#right-below-eye-gradient')" stroke="url('#right-below-eye-gradient')" points="293.96331860125065,201.80809772014618 275.92121782898903,187.4874774813652 291.9112386107445,179.47835057973862"></polygon><polygon fill="url('#left-ear-gradient')" stroke="url('#left-ear-gradient')" points="161.97704711556435,64.67225790023804 217.38223702460527,98.51975655555725 170.85045143961906,130.88200342655182"></polygon><polygon fill="url('#left-forehead-gradient')" stroke="url('#left-forehead-gradient')" points="170.85045143961906,130.88200342655182 217.38223702460527,98.51975655555725 242.32159147411585,157.89974150061607"></polygon><polygon fill="url('#forehead-gradient')" stroke="url('#forehead-gradient')" points="268.049049153924,158.40139809250832 242.32159147411585,157.89974150061607 217.38223702460527,98.51975655555725"></polygon><polygon fill="url('#left-ear-gradient')" stroke="url('#left-ear-gradient')" points="170.85045143961906,130.88200342655182 143.6975680589676,124.83911561965942 161.97704711556435,64.67225790023804"></polygon><polygon fill="rgb(156,90,221)" stroke="rgb(156,90,221)" points="277.452962026,170.3734903112054 275.92121782898903,187.4874774813652 268.049049153924,158.40139809250832"></polygon><polygon fill="url('#left-ear-gradient')" stroke="url('#left-ear-gradient')" points="115.00435909628868,146.14718341827393 143.6975680589676,124.83911561965942 170.85045143961906,130.88200342655182"></polygon><polygon fill="url('#left-ear-gradient')" stroke="url('#left-ear-gradient')" points="107.96852415800095,124.83859491348267 143.6975680589676,124.83911561965942 115.00435909628868,146.14718341827393"></polygon><polygon fill="url('#left-ear-gradient')" stroke="url('#left-ear-gradient')" points="107.96852415800095,124.83859491348267 105.4548629373312,109.90497207641602 143.6975680589676,124.83911561965942"></polygon><polygon fill="url('#left-ear-gradient')" stroke="url('#left-ear-gradient')" points="161.97704711556435,64.67225790023804 143.6975680589676,124.83911561965942 102.3521908223629,97.29995727539062"></polygon><polygon fill="url('#left-ear-gradient')" stroke="url('#left-ear-gradient')" points="143.6975680589676,124.83911561965942 105.4548629373312,109.90497207641602 102.3521908223629,97.29995727539062"></polygon><polygon fill="url('#left-forehead-gradient')" stroke="url('#left-forehead-gradient')" points="242.32159147411585,157.89974150061607 179.5795740969479,155.1052184700966 170.85045143961906,130.88200342655182"></polygon><polygon fill="url('#left-upper-cheek-gradient')" stroke="url('#left-upper-cheek-gradient')" points="115.00435909628868,146.14718341827393 170.85045143961906,130.88200342655182 179.5795740969479,155.1052184700966"></polygon><polygon fill="url('#left-ear-gradient')" stroke="url('#left-ear-gradient')" points="131.45261622965336,3.0745697021484375 217.38223702460527,98.51975655555725 161.97704711556435,64.67225790023804"></polygon><polygon fill="url('#forehead-gradient')" stroke="url('#forehead-gradient')" points="251.90565638244152,176.2023764848709 242.32159147411585,157.89974150061607 268.049049153924,158.40139809250832"></polygon><polygon fill="url('#forehead-gradient')" stroke="url('#forehead-gradient')" points="268.049049153924,158.40139809250832 275.119281694293,176.04101264476776 251.90565638244152,176.2023764848709"></polygon><polygon fill="url('#left-lower-cheek-gradient')" stroke="url('#left-lower-cheek-gradient')" points="187.66290999948978,253.83871364593506 97.91564479470253,285.0339503288269 83.74774810671806,215.26132035255432"></polygon><polygon fill="url('#left-lower-cheek-gradient')" stroke="url('#left-lower-cheek-gradient')" points="83.74774810671806,215.26132035255432 172.32369028776884,207.87962937355042 187.66290999948978,253.83871364593506"></polygon><polygon fill="url('#left-middle-cheek-gradient')" stroke="url('#left-middle-cheek-gradient')" points="187.66290999948978,253.83871364593506 172.32369028776884,207.87962937355042 212.47510426677763,205.6574331521988"></polygon><polygon fill="rgb(156,90,221)" stroke="rgb(156,90,221)" points="228.6833385899663,170.294498026371 242.32159147411585,157.89974150061607 241.59435062110424,188.3209177851677"></polygon><polygon fill="url('#left-ear-gradient')" stroke="url('#left-ear-gradient')" points="102.3521908223629,97.29995727539062 103.07235458493233,45.81705665588379 161.97704711556435,64.67225790023804"></polygon><polygon fill="url('#left-inner-eye-gradient')" stroke="url('#left-inner-eye-gradient')" points="241.59435062110424,188.3209177851677 242.32159147411585,157.89974150061607 251.90565638244152,176.2023764848709"></polygon><polygon fill="rgb(156,90,221)" stroke="rgb(156,90,221)" points="242.32159147411585,157.89974150061607 228.6833385899663,170.294498026371 208.78084504045546,180.51434683799744"></polygon><polygon fill="rgb(156,90,221)" stroke="rgb(156,90,221)" points="208.78084504045546,180.51434683799744 179.5795740969479,155.1052184700966 242.32159147411585,157.89974150061607"></polygon><polygon fill="url('#left-ear-gradient')" stroke="url('#left-ear-gradient')" points="161.97704711556435,64.67225790023804 103.07235458493233,45.81705665588379 131.45261622965336,3.0745697021484375"></polygon><polygon fill="rgb(223,117,84)" stroke="rgb(223,117,84)" points="211.89734030142426,260.539110660553 187.66290999948978,253.83871364593506 273.24329724907875,257.2468156814575"></polygon><polygon fill="rgb(22,22,22)" stroke="rgb(22,22,22)" points="241.59435062110424,188.3209177851677 208.78084504045546,180.51434683799744 228.6833385899663,170.294498026371"></polygon><polygon fill="url('#forehead-gradient')" stroke="url('#forehead-gradient')" points="251.90565638244152,176.2023764848709 275.119281694293,176.04101264476776 312.6439248621464,216.30199670791626"></polygon><polygon fill="url('#left-ear-gradient')" stroke="url('#left-ear-gradient')" points="115.00435909628868,146.14718341827393 103.5865591019392,128.86263227462769 107.96852415800095,124.83859491348267"></polygon><polygon fill="rgb(255,159,90)" stroke="rgb(255,159,90)" points="283.7241529226303,245.45633554458618 273.24329724907875,257.2468156814575 187.66290999948978,253.83871364593506"></polygon><polygon fill="rgb(255,159,90)" stroke="rgb(255,159,90)" points="187.66290999948978,253.83871364593506 287.51829010248184,221.58877658843994 283.7241529226303,245.45633554458618"></polygon><polygon fill="rgb(147,131,250)" stroke="rgb(147,131,250)" points="287.51829010248184,221.58877658843994 187.66290999948978,253.83871364593506 212.47510426677763,205.6574331521988"></polygon><polygon fill="url('#left-upper-cheek-gradient')" stroke="url('#left-upper-cheek-gradient')" points="179.5795740969479,155.1052184700966 83.74774810671806,215.26132035255432 115.00435909628868,146.14718341827393"></polygon><polygon fill="url('#left-below-eye-gradient')" stroke="url('#left-below-eye-gradient')" points="212.47510426677763,205.6574331521988 208.78084504045546,180.51434683799744 241.59435062110424,188.3209177851677"></polygon><polygon fill="url('#left-upper-cheek-gradient')" stroke="url('#left-upper-cheek-gradient')" points="172.32369028776884,207.87962937355042 83.74774810671806,215.26132035255432 179.5795740969479,155.1052184700966"></polygon><polygon fill="url('#left-ear-gradient')" stroke="url('#left-ear-gradient')" points="107.96852415800095,124.83859491348267 100.07999140024185,115.12914705276489 105.4548629373312,109.90497207641602"></polygon><polygon fill="url('#left-ear-gradient')" stroke="url('#left-ear-gradient')" points="97.54644706845284,101.52577328681946 102.3521908223629,97.29995727539062 105.4548629373312,109.90497207641602"></polygon><polygon fill="url('#left-outer-eye-gradient')" stroke="url('#left-outer-eye-gradient')" points="179.5795740969479,155.1052184700966 208.78084504045546,180.51434683799744 212.47510426677763,205.6574331521988"></polygon><polygon fill="rgb(223,117,84)" stroke="rgb(223,117,84)" points="273.24329724907875,257.2468156814575 277.1700645685196,266.8413076400757 211.89734030142426,260.539110660553"></polygon><polygon fill="url('#left-upper-cheek-gradient')" stroke="url('#left-upper-cheek-gradient')" points="179.5795740969479,155.1052184700966 212.47510426677763,205.6574331521988 172.32369028776884,207.87962937355042"></polygon><polygon fill="url('#left-inner-eye-gradient')" stroke="url('#left-inner-eye-gradient')" points="251.90565638244152,176.2023764848709 291.3575080782175,217.83191657066345 241.59435062110424,188.3209177851677"></polygon><polygon fill="url('#left-below-eye-gradient')" stroke="url('#left-below-eye-gradient')" points="241.59435062110424,188.3209177851677 291.3575080782175,217.83191657066345 287.51829010248184,221.58877658843994"></polygon><polygon fill="url('#left-below-eye-gradient')" stroke="url('#left-below-eye-gradient')" points="287.51829010248184,221.58877658843994 212.47510426677763,205.6574331521988 241.59435062110424,188.3209177851677"></polygon><polygon fill="url('#forehead-gradient')" stroke="url('#forehead-gradient')" points="312.6439248621464,216.30199670791626 291.3575080782175,217.83191657066345 251.90565638244152,176.2023764848709"></polygon><polygon fill="rgb(223,117,84)" stroke="rgb(223,117,84)" points="319.50951328873634,238.84699702262878 307.43567872047424,262.4641513824463 277.1700645685196,266.8413076400757"></polygon><polygon fill="rgb(223,117,84)" stroke="rgb(223,117,84)" points="277.1700645685196,266.8413076400757 273.24329724907875,257.2468156814575 283.7241529226303,245.45633554458618"></polygon><polygon fill="rgb(22,22,22)" stroke="rgb(22,22,22)" points="300.9956885576248,221.0596239566803 291.3575080782175,217.83191657066345 312.6439248621464,216.30199670791626"></polygon><polygon fill="rgb(22,22,22)" stroke="rgb(22,22,22)" points="312.6439248621464,216.30199670791626 322.2138926386833,219.40377831459045 300.9956885576248,221.0596239566803"></polygon><polygon fill="rgb(223,117,84)" stroke="rgb(223,117,84)" points="277.1700645685196,266.8413076400757 290.6772846877575,241.99531173706055 319.50951328873634,238.84699702262878"></polygon><polygon fill="rgb(22,22,22)" stroke="rgb(22,22,22)" points="298.60171633958817,224.82384395599365 324.44979682564735,222.6617968082428 319.50951328873634,238.84699702262878"></polygon><polygon fill="rgb(22,22,22)" stroke="rgb(22,22,22)" points="319.50951328873634,238.84699702262878 290.6772846877575,241.99531173706055 298.60171633958817,224.82384395599365"></polygon><polygon fill="rgb(223,117,84)" stroke="rgb(223,117,84)" points="283.7241529226303,245.45633554458618 290.6772846877575,241.99531173706055 277.1700645685196,266.8413076400757"></polygon><polygon fill="rgb(22,22,22)" stroke="rgb(22,22,22)" points="322.2138926386833,219.40377831459045 324.44979682564735,222.6617968082428 298.60171633958817,224.82384395599365"></polygon><polygon fill="rgb(22,22,22)" stroke="rgb(22,22,22)" points="298.60171633958817,224.82384395599365 300.9956885576248,221.0596239566803 322.2138926386833,219.40377831459045"></polygon><polygon fill="rgb(22,22,22)" stroke="rgb(22,22,22)" points="287.51829010248184,221.58877658843994 291.3575080782175,217.83191657066345 300.9956885576248,221.0596239566803"></polygon><polygon fill="rgb(22,22,22)" stroke="rgb(22,22,22)" points="290.6772846877575,241.99531173706055 283.7241529226303,245.45633554458618 287.51829010248184,221.58877658843994"></polygon><polygon fill="rgb(22,22,22)" stroke="rgb(22,22,22)" points="287.51829010248184,221.58877658843994 298.60171633958817,224.82384395599365 290.6772846877575,241.99531173706055"></polygon><polygon fill="rgb(22,22,22)" stroke="rgb(22,22,22)" points="300.9956885576248,221.0596239566803 298.60171633958817,224.82384395599365 287.51829010248184,221.58877658843994"></polygon></svg>